{
  "asset": {
    "copyright": "CC-BY 4.0 Model by PixelMannen https://opengameart.org/content/fox-and-shiba and @tomkranis https://sketchfab.com/3d-models/low-poly-fox-by-pixelmannen-animated-371dea88d7e04a76af5763f2a36866bc and @AsoboStudio with @scurest https://github.com/KhronosGroup/glTF-Sample-Models/pull/150#issuecomment-406300118",
    "version": "2.0",
    "generator": "gltfeditor.com"
  },
  "buffers": [
    {
      "uri": "data:application/octet-stream;base64,",
      "byteLength": 146668
    }
  ],
  "bufferViews": [
    {
      "buffer": 0,
      "byteOffset": 0,
      "byteLength": 20736,
      "target": 34962,
      "byteStride": 12
    },
    {
      "buffer": 0,
      "byteOffset": 20736,
      "byteLength": 27648,
      "target": 34962,
      "byteStride": 8
    },
    {
      "buffer": 0,
      "byteOffset": 48384,
      "byteLength": 27648,
      "target": 34962,
      "byteStride": 16
    }
  ],
  "accessors": [
    {
      "bufferView": 0,
      "byteOffset": 0,
      "componentType": 5126,
      "normalized": false,
      "count": 1728,
      "max": [
        12.592718124389648,
        78.90718841552734,
        66.62486267089844
      ],
      "min": [
        -12.592718124389648,
        -0.12174476683139801,
        -88.09500122070312
      ],
      "type": "VEC3"
    },
    {
      "bufferView": 1,
      "byteOffset": 0,
      "componentType": 5126,
      "normalized": false,
      "count": 1728,
      "max": [
        0.9830359816551208,
        0.9849969744682312
      ],
      "min": [
        0.02044299989938736,
        0.01976200006902218
      ],
      "type": "VEC2"
    },
    {
      "bufferView": 1,
      "byteOffset": 13824,
      "componentType": 5123,
      "normalized": false,
      "count": 1728,
      "max": [
        23,
        23,
        21,
        10
      ],
      "min": [
        2,
        0,
        0,
        0
      ],
      "type": "VEC4"
    },
    {
      "bufferView": 2,
      "byteOffset": 0,
      "componentType": 5126,
      "normalized": false,
      "count": 1728,
      "max": [
        1,
        0.5,
        0.14980700612068176,
        0.07318683713674545
      ],
      "min": [
        0.5,
        0,
        0,
        0
      ],
      "type": "VEC4"
    }
  ],
  "scene": 0,
  "scenes": [
    {
      "nodes": [
        24,
        25
      ],
      "name": "Fox"
    }
  ],
  "nodes": [
    {
      "name": "b_Head_05",
      "matrix": [
        0.666300356388092,
        -0.7394534945487976,
        0.09618909657001495,
        0,
        0.7417963147163391,
        0.6704432964324951,
        0.015620226040482521,
        0,
        -0.07603976875543594,
        0.06094495579600334,
        0.9952405095100403,
        0,
        13.376960754394531,
        0,
        0,
        1
      ]
    },
    {
      "name": "b_Neck_04",
      "children": [
        0
      ],
      "matrix": [
        0.8138978481292725,
        0.5767273902893066,
        0.07039809972047806,
        0,
        -0.5781617760658264,
        0.8159221410751343,
        -1.0409162420899065e-10,
        0,
        -0.057439371943473816,
        -0.0407014898955822,
        0.9975189566612244,
        0,
        25.64914321899414,
        0,
        0,
        1
      ]
    },
    {
      "name": "b_RightHand_08",
      "matrix": [
        0.7846660614013672,
        0.6199115514755249,
        0.002968347631394863,
        0,
        -0.6195836067199707,
        0.784390389919281,
        -0.029117997735738754,
        0,
        -0.020378926768898964,
        0.02100876346230507,
        0.9995715618133545,
        0,
        19.350055694580078,
        -0.14598655700683594,
        0,
        1
      ]
    },
    {
      "name": "b_RightForeArm_07",
      "children": [
        2
      ],
      "matrix": [
        0.8707559108734131,
        0.4917154908180237,
        3.949381446877176e-11,
        0,
        -0.4917154908180237,
        0.8707559108734131,
        7.55626601289805e-8,
        0,
        3.7120940987733775e-8,
        -6.581605305200355e-8,
        1,
        0,
        23.04512596130371,
        0,
        0,
        1
      ]
    },
    {
      "name": "b_RightUpperArm_06",
      "children": [
        3
      ],
      "matrix": [
        -0.21993128955364227,
        -0.9755153059959412,
        -0.0002878545201383531,
        0,
        0.9755145311355591,
        -0.2199314832687378,
        0.0012254578759893775,
        0,
        -0.0012587611563503742,
        -0.000011289708709227853,
        0.9999992251396179,
        0,
        18.677913665771484,
        -4.297340393066406,
        6.9675750732421875,
        1
      ]
    },
    {
      "name": "b_LeftHand_011",
      "matrix": [
        0.7853406667709351,
        0.6190455555915833,
        -0.004758976399898529,
        0,
        -0.6185988783836365,
        0.7850254774093628,
        0.03271724656224251,
        0,
        0.02398938313126564,
        -0.022750284522771835,
        0.9994533061981201,
        0,
        19.350051879882812,
        -0.14599037170410156,
        0,
        1
      ]
    },
    {
      "name": "b_LeftForeArm_010",
      "children": [
        5
      ],
      "matrix": [
        0.8708202838897705,
        0.49160143733024597,
        -2.490474840244339e-11,
        0,
        -0.49160143733024597,
        0.8708202838897705,
        7.546577052153225e-8,
        0,
        3.712077401019087e-8,
        -6.570488864099389e-8,
        1,
        0,
        23.045124053955078,
        0,
        0,
        1
      ]
    },
    {
      "name": "b_LeftUpperArm_09",
      "children": [
        6
      ],
      "matrix": [
        -0.21948862075805664,
        -0.9756150245666504,
        0.00018054578686133027,
        0,
        0.9756150841712952,
        -0.21948862075805664,
        0.00006645169196417555,
        0,
        -0.00002520352791179903,
        0.00019072857685387135,
        1,
        0,
        18.67791748046875,
        -4.297344207763672,
        -6.967987060546875,
        1
      ]
    },
    {
      "name": "b_Spine02_03",
      "children": [
        1,
        4,
        7
      ],
      "matrix": [
        0.995850145816803,
        0.09100818634033203,
        6.898059461959635e-14,
        0,
        -0.09100818634033203,
        0.995850145816803,
        9.385377808257545e-8,
        0,
        8.541393370364858e-9,
        -9.346430829282326e-8,
        1,
        0,
        21.65575408935547,
        -0.000118255615234375,
        0,
        1
      ]
    },
    {
      "name": "b_Spine01_02",
      "children": [
        8
      ],
      "matrix": [
        0.3028187155723572,
        -0.9530481696128845,
        5.675717034137051e-7,
        0,
        0.9530481696128845,
        0.3028187155723572,
        -5.8604108232884755e-8,
        0,
        -1.1601878924238918e-7,
        5.586696261161705e-7,
        1,
        0,
        12.850601196289062,
        0,
        0,
        1
      ]
    },
    {
      "name": "b_Tail03_014",
      "matrix": [
        0.9809578061103821,
        -0.09603019803762436,
        0.16881927847862244,
        0,
        0.09734039008617401,
        0.9952509999275208,
        0.000517337117344141,
        0,
        -0.16806723177433014,
        0.015925448387861252,
        0.9856469035148621,
        0,
        24.24032211303711,
        0,
        0,
        1
      ]
    },
    {
      "name": "b_Tail02_013",
      "children": [
        10
      ],
      "matrix": [
        0.9765958189964294,
        -0.1329392045736313,
        0.16907919943332672,
        0,
        0.13488170504570007,
        0.990861713886261,
        -0.00000315644365400658,
        0,
        -0.16753368079662323,
        0.022808773443102837,
        0.9856024384498596,
        0,
        12.411918640136719,
        0,
        0,
        1
      ]
    },
    {
      "name": "b_Tail01_012",
      "children": [
        11
      ],
      "matrix": [
        -0.9148553609848022,
        0.36665424704551697,
        0.16912786662578583,
        0,
        -0.3720133304595947,
        -0.9282273650169373,
        5.168755023987615e-7,
        0,
        0.15698929131031036,
        -0.06291733682155609,
        0.9855940937995911,
        0,
        4.2603759765625,
        15.958770751953125,
        0,
        1
      ]
    },
    {
      "name": "b_LeftFoot02_018",
      "matrix": [
        0.4009510278701782,
        0.916099488735199,
        0,
        0,
        -0.916099488735199,
        0.4009510278701782,
        0,
        0,
        0,
        0,
        1,
        0,
        15.779938697814941,
        0,
        0,
        1
      ]
    },
    {
      "name": "b_LeftFoot01_017",
      "children": [
        13
      ],
      "matrix": [
        0.4215906262397766,
        0.906786322593689,
        8.961100093074492e-7,
        0,
        -0.906786322593689,
        0.4215906262397766,
        -4.0452707850135994e-8,
        0,
        -4.1447358967161563e-7,
        -7.95525750163506e-7,
        1,
        0,
        17.942811965942383,
        0,
        0,
        1
      ]
    },
    {
      "name": "b_LeftLeg02_016",
      "children": [
        14
      ],
      "matrix": [
        0.527760922908783,
        -0.8493929505348206,
        -3.765456568771697e-8,
        0,
        0.8493929505348206,
        0.527760922908783,
        2.6969446031348092e-14,
        0,
        1.987258535507408e-8,
        -3.198353581979063e-8,
        1,
        0,
        18.944175720214844,
        0,
        0,
        1
      ]
    },
    {
      "name": "b_LeftLeg01_015",
      "children": [
        15
      ],
      "matrix": [
        -0.8428785800933838,
        -0.5381037592887878,
        -2.6106690143024025e-7,
        0,
        0.5381037592887878,
        -0.8428785800933838,
        1.6202636743400944e-7,
        0,
        -3.0723469990334706e-7,
        -3.9125240824944285e-9,
        1,
        0,
        4.813770294189453,
        5.154018402099609,
        -6.968006134033203,
        1
      ]
    },
    {
      "name": "b_RightFoot02_022",
      "matrix": [
        0.4009510278701782,
        0.916099488735199,
        0,
        0,
        -0.916099488735199,
        0.4009510278701782,
        0,
        0,
        0,
        0,
        1,
        0,
        15.779935836791992,
        0,
        0,
        1
      ]
    },
    {
      "name": "b_RightFoot01_021",
      "children": [
        17
      ],
      "matrix": [
        0.4215924143791199,
        0.9067854285240173,
        0.00017293613927904516,
        0,
        -0.9067854285240173,
        0.4215924143791199,
        -0.00006074217890272848,
        0,
        -0.00012798869283869863,
        -0.0001312075328314677,
        1,
        0,
        17.94281005859375,
        0,
        0,
        1
      ]
    },
    {
      "name": "b_RightLeg02_020",
      "children": [
        18
      ],
      "matrix": [
        0.5277614593505859,
        -0.8493926525115967,
        -3.7663809848709207e-8,
        0,
        0.8493926525115967,
        0.5277614593505859,
        1.0461673194406274e-11,
        0,
        1.9868620526608538e-8,
        -3.1996883365081885e-8,
        1,
        0,
        18.944183349609375,
        0,
        0,
        1
      ]
    },
    {
      "name": "b_RightLeg01_019",
      "children": [
        19
      ],
      "matrix": [
        -0.8428786993026733,
        -0.5381038188934326,
        -0.00014149538765195757,
        0,
        0.5381037592887878,
        -0.8428785800933838,
        -0.0002638464793562889,
        0,
        0.00002271336234116461,
        -0.0002985297469422221,
        0.9999999403953552,
        0,
        4.813777923583984,
        5.154026031494141,
        6.967563629150391,
        1
      ]
    },
    {
      "name": "b_Hip_01",
      "children": [
        9,
        12,
        16,
        20
      ],
      "matrix": [
        -7.084498321319188e-8,
        -0.35522598028182983,
        0.934780478477478,
        0,
        -9.576526736054802e-7,
        0.934780478477478,
        0.35522598028182983,
        0,
        -1,
        -8.663212724968616e-7,
        -4.0572686543782766e-7,
        0,
        0.0000013453675364871742,
        24.551631927490234,
        40.525245666503906,
        1
      ]
    },
    {
      "name": "b_Root_00",
      "children": [
        21
      ],
      "matrix": [
        1,
        0,
        0,
        0,
        0,
        -0.0000036746973819390405,
        -0.9999998807907104,
        0,
        0,
        0.9999998807907104,
        -0.0000036746973819390405,
        0,
        0,
        0,
        0,
        1
      ]
    },
    {
      "name": "_rootJoint",
      "children": [
        22
      ]
    },
    {
      "name": "root",
      "children": [
        23
      ]
    },
    {
      "name": "fox",
      "matrix": [
        0.10000000149011612,
        0,
        0,
        0,
        0,
        0.10000000149011612,
        0,
        0,
        0,
        0,
        0.10000000149011612,
        0,
        0,
        0,
        0,
        1
      ],
      "mesh": 0
    }
  ],
  "meshes": [
    {
      "primitives": [
        {
          "attributes": {
            "POSITION": 0,
            "TEXCOORD_0": 1,
            "JOINTS_0": 2,
            "WEIGHTS_0": 3
          },
          "material": 0,
          "mode": 4
        }
      ]
    }
  ],
  "materials": [
    {
      "pbrMetallicRoughness": {
        "baseColorFactor": [
          1,
          1,
          1,
          1
        ],
        "metallicFactor": 0,
        "roughnessFactor": 0.58,
        "baseColorTexture": {
          "index": 0,
          "texCoord": 0
        }
      },
      "emissiveFactor": [
        0,
        0,
        0
      ],
      "alphaMode": "OPAQUE",
      "doubleSided": false
    }
  ],
  "textures": [
    {
      "sampler": 0,
      "source": 0
    }
  ],
  "samplers": [
    {
      "magFilter": 9729,
      "minFilter": 9987,
      "wrapS": 10497,
      "wrapT": 10497
    }
  ],
  "images": [
    {
      "uri": "data:image/png;base64,",
      "mimeType": "image/png"
    }
  ]
}